<?xml version="1.0" encoding="utf-8"?>
<!-- Generator: Adobe Illustrator 25.0.0, SVG Export Plug-In . SVG Version: 6.00 Build 0)  -->
<svg version="1.1" id="Calque_1" xmlns="http://www.w3.org/2000/svg" xmlns:xlink="http://www.w3.org/1999/xlink" x="0px" y="0px"
	 viewBox="0 0 113.39 113.39" style="enable-background:new 0 0 113.39 113.39;" xml:space="preserve">
<style type="text/css">
	.st0{fill:#00A6D9;}
	.st1{fill:#FFFFFF;}
</style>
<g>
	<g>
		
			<ellipse transform="matrix(0.3827 -0.9239 0.9239 0.3827 -17.2948 87.3181)" class="st0" cx="56.69" cy="56.6" rx="28.35" ry="28.35"/>
	</g>
	<g>
		<path class="st1" d="M68.76,50.09c-3.1,0-5.74,2.34-6.13,5.33h-4.64v-4.14c0-0.66-0.56-1.2-1.22-1.2c-0.67,0-1.22,0.54-1.22,1.2
			v4.14l-5.07,0c0.67-0.79,1.08-1.96,1.08-3.11c0-3.04-2.47-5.51-5.51-5.51h-4.79c-0.66,0-1.2,0.53-1.2,1.2v14.95
			c0,0.66,0.54,1.2,1.2,1.2c0.66,0,1.2-0.53,1.2-1.2v-5.13h4.49l4.21,5.83c0.24,0.32,0.6,0.5,0.98,0.5c0.24,0,0.49-0.07,0.7-0.23
			c0.54-0.39,0.66-1.14,0.27-1.67l-3.2-4.42h5.64c0,0.3,0,2.82,0,2.82c0,2.07,1.51,3.49,3.49,3.49h0.72c0.67,0,1.21-0.55,1.21-1.21
			c0-0.67-0.54-1.22-1.21-1.22h-0.72c-0.58,0-1.04-0.49-1.04-1.12v-2.76h4.59c0,3.58,2.81,6.31,6.21,6.31h4.49
			c0.67,0,1.24-0.55,1.24-1.21c0-0.67-0.54-1.22-1.2-1.22h-4.5c-2.09,0-3.74-1.61-3.74-3.88h8.49c0.7,0,1.29-0.66,1.29-1.38
			C74.9,52.76,72.12,50.09,68.76,50.09z M46.06,55.43h-3.58V49.2h3.58c1.72,0,3.11,1.39,3.11,3.11
			C49.17,54.03,47.78,55.43,46.06,55.43z M65.17,55.43c0.29-1.59,1.81-2.92,3.58-2.92c1.77,0,3.4,1.24,3.66,2.92H65.17z"/>
	</g>
</g>
</svg>
